<?xml version="1.0" standalone="no"?><!DOCTYPE svg PUBLIC "-//W3C//DTD SVG 1.1//EN" "http://www.w3.org/Graphics/SVG/1.1/DTD/svg11.dtd"><svg class="icon" height="512" viewBox="0 0 1024 1024" version="1.1" xmlns="http://www.w3.org/2000/svg"><path d="M296.96 266.24c-66.56 0-122.88-56.32-122.88-122.88C174.08 76.8 230.4 20.48 296.96 20.48c66.56 0 122.88 56.32 122.88 122.88 0 66.56-56.32 122.88-122.88 122.88z m0-184.32c-35.84 0-61.44 25.6-61.44 61.44S261.12 204.8 296.96 204.8 358.4 179.2 358.4 143.36s-25.6-61.44-61.44-61.44zM727.04 266.24c-66.56 0-122.88-56.32-122.88-122.88 0-66.56 56.32-122.88 122.88-122.88s122.88 56.32 122.88 122.88c0 66.56-56.32 122.88-122.88 122.88z m0-184.32c-35.84 0-61.44 25.6-61.44 61.44S691.2 204.8 727.04 204.8s61.44-25.6 61.44-61.44-25.6-61.44-61.44-61.44zM512 983.04c-66.56 0-122.88-56.32-122.88-122.88s56.32-122.88 122.88-122.88 122.88 56.32 122.88 122.88-56.32 122.88-122.88 122.88z m0-184.32c-35.84 0-61.44 25.6-61.44 61.44S476.16 921.6 512 921.6s61.44-25.6 61.44-61.44-25.6-61.44-61.44-61.44zM563.2 747.52H460.8v-61.44c0-61.44-46.08-102.4-97.28-153.6-56.32-51.2-117.76-107.52-117.76-194.56v-102.4h102.4v102.4c0 40.96 40.96 76.8 81.92 122.88 30.72 20.48 56.32 51.2 81.92 81.92 25.6-30.72 51.2-56.32 76.8-81.92 46.08-40.96 87.04-76.8 87.04-122.88v-102.4h102.4v102.4c0 87.04-61.44 148.48-117.76 199.68-51.2 46.08-97.28 92.16-97.28 148.48v61.44z" /></svg>